<svg xmlns="http://www.w3.org/2000/svg" width="60" height="60" viewBox="0 0 60 60">
  <defs>
    <linearGradient id="bolt" x1="0%" y1="100%" x2="100%" y2="0%">
      <stop offset="0%" stop-color="#00B4D8"/>
      <stop offset="50%" stop-color="#00D68F"/>
      <stop offset="100%" stop-color="#80F09A"/>
    </linearGradient>
    <linearGradient id="glow" x1="0%" y1="100%" x2="100%" y2="0%">
      <stop offset="0%" stop-color="#00B4D8" stop-opacity="0.3"/>
      <stop offset="100%" stop-color="#80F09A" stop-opacity="0.3"/>
    </linearGradient>
  </defs>
  <rect width="60" height="60" rx="12" fill="#1A1F2E"/>
  <path d="M36 5 L22 26 L32 26 L20 55 L44 28 L33 28 L44 10 Z"
        fill="none" stroke="url(#bolt)" stroke-width="2.8"
        stroke-linejoin="round" stroke-linecap="round"/>
  <path d="M38 8 L44 10 L40 15"
        fill="none" stroke="url(#bolt)" stroke-width="2.2"
        stroke-linejoin="round" stroke-linecap="round"/>
  <path d="M30 16 L30 22 L34 22"
        fill="none" stroke="url(#bolt)" stroke-width="1.2"
        stroke-linecap="round" opacity="0.7"/>
  <path d="M28 36 L28 42 L32 42"
        fill="none" stroke="url(#bolt)" stroke-width="1.2"
        stroke-linecap="round" opacity="0.7"/>
  <path d="M26 29 L30 33"
        fill="none" stroke="url(#bolt)" stroke-width="1.2"
        stroke-linecap="round" opacity="0.6"/>
  <circle cx="34" cy="22" r="1.8" fill="#00D68F"/>
  <circle cx="30" cy="16" r="1.4" fill="#00C4E0" opacity="0.8"/>
  <circle cx="32" cy="42" r="1.8" fill="#80F09A"/>
  <circle cx="28" cy="36" r="1.4" fill="#00D68F" opacity="0.8"/>
  <circle cx="30" cy="33" r="1.2" fill="#00C4E0" opacity="0.6"/>
  <path d="M36 5 L22 26 L32 26 L20 55 L44 28 L33 28 L44 10 Z"
        fill="url(#glow)" opacity="0.4"/>
</svg>
